<svg width="640" height="512" viewBox="0 0 640 512" fill="none" xmlns="http://www.w3.org/2000/svg">
<g clip-path="url(#clip0)">
<path d="M632 480H608L339.74 109.19L402.74 22.1C405.34 18.53 404.54 13.53 400.97 10.93L388.04 1.53004C384.47 -1.06996 379.46 -0.27996 376.86 3.30004L320 81.9L263.14 3.30004C262.523 2.4492 261.743 1.72843 260.847 1.17892C259.951 0.629415 258.955 0.261962 257.917 0.0975736C256.879 -0.0668145 255.818 -0.0249134 254.796 0.220881C253.774 0.466675 252.81 0.911541 251.96 1.53004L239.03 10.93C235.46 13.53 234.66 18.53 237.26 22.1L300.26 109.19L32 480H8C3.58 480 0 483.58 0 488V504C0 508.42 3.58 512 8 512H632C636.42 512 640 508.42 640 504V488C640 483.58 636.42 480 632 480ZM222.19 480L320 343.06L417.81 480H222.19ZM457.15 480L333.02 306.23C326.64 297.3 313.36 297.3 306.98 306.23L182.85 480H71.49L320 136.48L568.51 480H457.15Z" fill="#FF5A60"/>
</g>
<defs>
<clipPath id="clip0">
<rect width="640" height="512" fill="white"/>
</clipPath>
</defs>
</svg>
